<?xml version="1.0" encoding="UTF-8"?>
<svg width="15px" height="14px" viewBox="0 0 15 14" version="1.1" xmlns="http://www.w3.org/2000/svg" xmlns:xlink="http://www.w3.org/1999/xlink">
    <!-- Generator: Sketch 63.1 (92452) - https://sketch.com -->
    <title>ic_chat</title>
    <desc>Created with Sketch.</desc>
    <defs>
        <linearGradient x1="100%" y1="50%" x2="0%" y2="50%" id="linearGradient-1">
            <stop stop-color="#FF2B50" offset="0%"></stop>
            <stop stop-color="#FF7493" offset="100%"></stop>
        </linearGradient>
    </defs>
    <g id="Website-Design" stroke="none" stroke-width="1" fill="none" fill-rule="evenodd">
        <g id="ic_chat" fill="url(#linearGradient-1)">
            <path d="M1.00477833e-06,4.4955122 C-0.00079651644,3.30220686 0.473196744,2.15761248 1.31741323,1.3142402 C2.16162972,0.47086793 3.30669777,-0.00197992718 4.500001,6.23180689e-06 L10.500001,6.23180689e-06 C12.9847511,6.23180689e-06 15.000001,2.02126237 15.000001,4.4955122 L15.000001,13.5000062 L4.500001,13.5000062 C2.01525188,13.5000062 1.00477833e-06,11.4787617 1.00477833e-06,9.0045119 L1.00477833e-06,4.4955122 Z M13.5000004,12.000003 L13.5000004,4.4955122 C13.49587,2.84110116 12.1544167,1.50166001 10.5000004,1.50000299 L4.5000004,1.50000299 C3.70452262,1.49801831 2.94098455,1.81283021 2.3780721,2.37489829 C1.81515965,2.93696637 1.49920194,3.70003102 1.5000004,4.4955122 L1.5000004,9.0045119 C1.504133,10.6589229 2.84558633,11.9983641 4.5000004,12.000003 L13.5000004,12.000003 Z M9.00000141,6.0000121 L10.5000014,6.0000121 L10.5000014,7.5000121 L9.00000141,7.5000121 L9.00000141,6.0000121 Z M4.50000171,6.0000121 L6.00000171,6.0000121 L6.00000171,7.5000121 L4.50000171,7.5000121 L4.50000171,6.0000121 Z" id="Shape"></path>
        </g>
    </g>
</svg>