<?xml version="1.0" encoding="UTF-8"?>
<svg width="15px" height="14px" viewBox="0 0 15 14" version="1.1" xmlns="http://www.w3.org/2000/svg" xmlns:xlink="http://www.w3.org/1999/xlink">
    <!-- Generator: Sketch 63.1 (92452) - https://sketch.com -->
    <title>ic_heart</title>
    <desc>Created with Sketch.</desc>
    <g id="Website-Design" stroke="none" stroke-width="1" fill="none" fill-rule="evenodd">
        <path d="M10.875,0 C13.1535,0 15,1.875 15,4.5 C15,9.75 9.375,12.75 7.5,13.875 C5.625,12.75 0,9.75 0,4.5 C0,1.875 1.875,0 4.125,0 C5.52,0 6.75,0.75 7.5,1.5 C8.25,0.75 9.48,0 10.875,0 Z M8.2005,11.703 C8.86125,11.286 9.4575,10.87125 10.0155,10.42725 C12.25125,8.64975 13.5,6.70725 13.5,4.5 C13.5,2.73 12.34725,1.5 10.875,1.5 C10.068,1.5 9.195,1.9275 8.5605,2.5605 L7.5,3.621 L6.4395,2.5605 C5.805,1.9275 4.932,1.5 4.125,1.5 C2.67,1.5 1.5,2.742 1.5,4.5 C1.5,6.708 2.7495,8.64975 4.98375,10.42725 C5.5425,10.87125 6.13875,11.286 6.7995,11.70225 C7.02375,11.844 7.24575,11.97975 7.5,12.13125 C7.75425,11.97975 7.97625,11.844 8.2005,11.703 L8.2005,11.703 Z" id="ic_heart" fill="#FFFFFF" fill-rule="nonzero"></path>
    </g>
</svg>