<?xml version="1.0" standalone="no"?>
<!DOCTYPE svg PUBLIC "-//W3C//DTD SVG 1.1//EN" "http://www.w3.org/Graphics/SVG/1.1/DTD/svg11.dtd" >
<svg xmlns="http://www.w3.org/2000/svg" xmlns:xlink="http://www.w3.org/1999/xlink" version="1.1">
<metadata>
Created by FontForge 20170731 at Fri Mar  3 15:18:00 1995
 By Aleksey,,,
Bajoran - the Deep Space Nine font,Copyright 1994 Kiwi Media
</metadata>
<defs>
<font id="Bajoran" horiz-adv-x="465" >
  <font-face 
    font-family="Bajoran"
    font-weight="5"
    font-stretch="normal"
    units-per-em="1000"
    panose-1="0 0 0 0 0 0 0 0 0 0"
    ascent="802"
    descent="-198"
    x-height="593"
    cap-height="618"
    bbox="-163 -180 1032 802"
    underline-thickness="0"
    underline-position="0"
    unicode-range="U+0020-00D7"
  />
<missing-glyph horiz-adv-x="802" 
d="M50 0v802h702v-802h-702zM702 50v702h-602v-702h602z" />
    <glyph glyph-name=".notdef" horiz-adv-x="802" 
d="M50 0v802h702v-802h-702zM702 50v702h-602v-702h602z" />
    <glyph glyph-name=".null" unicode="&#xd7;" horiz-adv-x="0" 
 />
    <glyph glyph-name=".null" unicode="&#x141;" horiz-adv-x="0" 
 />
    <glyph glyph-name=".null" unicode="&#xfd;" horiz-adv-x="0" 
 />
    <glyph glyph-name="nonmarkingreturn" horiz-adv-x="222" 
 />
    <glyph glyph-name="space" unicode=" " horiz-adv-x="222" 
 />
    <glyph glyph-name="exclam" unicode="!" horiz-adv-x="227" 
d="M70 68q0 30 13 50t32 20q18 0 31.5 -20.5t13.5 -49.5q0 -27 -13 -47t-32 -20t-32 19.5t-13 47.5zM160 198l-90 -25l2 420h86z" />
    <glyph glyph-name="quotedbl" unicode="&#x22;" horiz-adv-x="345" 
d="M136 593l-1 -145l-50 -30l-1 179zM253 598l4 -145l-50 -25l-1 174z" />
    <glyph glyph-name="numbersign" unicode="#" horiz-adv-x="557" 
d="M146 165h-76l40 90h-100l31 70h100l31 70h-100l31 70h100l39 88h77l-39 -88h73l39 88h76l-39 -88h97l-31 -70h-97l-31 -70h97l-31 -70h-97l-40 -90h-77l40 90h-73zM217 325h73l32 70h-73z" />
    <glyph glyph-name="dollar" unicode="$" horiz-adv-x="685" 
d="M12 0l90 90h203v175l90 -25v-150h185q0 70 -67 119q-56 41 -148.5 64t-146.5 42q-79 28 -120 60q-51 40 -51 88q0 54 35 92t85 38l138 2v155h90v-155l224 -2l-89 -86l-130 -2v-135l-95 35v100l-43 -2q-69 0 -89 -5q-36 -9 -36 -40q0 -14 70 -43t150 -50q144 -38 218 -93
q95 -71 95 -182v-90h-275v-115h-90v115h-293z" />
    <glyph glyph-name="percent" unicode="%" 
d="M24 479q0 38 26 66t62 28h31q36 0 61.5 -27.5t25.5 -66.5q0 -40 -25 -68.5t-62 -28.5h-31q-36 0 -62 29t-26 68zM237 117q0 38 26 66t62 28h31q36 0 61.5 -27.5t25.5 -66.5q0 -40 -25 -68.5t-62 -28.5h-31q-36 0 -62 29t-26 68zM137 -5l-100 -25l295 623h94zM114 429h26
q19 0 32 15t13 35q0 21 -13.5 35.5t-31.5 14.5h-26q-18 0 -31.5 -14.5t-13.5 -35.5q0 -20 13 -35t32 -15zM327 67h26q19 0 32 15t13 35q0 21 -13.5 35.5t-31.5 14.5h-26q-18 0 -31.5 -14.5t-13.5 -35.5q0 -20 13 -35t32 -15z" />
    <glyph glyph-name="ampersand" unicode="&#x26;" horiz-adv-x="460" 
d="M433 50h-276q-56 0 -96.5 58.5t-40.5 141.5q0 99 57 125q-17 18 -26 47.5t-9 55.5q0 69 49 117t119 48q63 0 104 -31q33 -25 61 -79l-68 -68q-8 7 -12 11q-13 14 -13 27q0 16 -22 33t-50 17q-31 0 -53 -28t-22 -70q0 -39 22 -67t53 -28v-17q-51 0 -75.5 -29t-24.5 -74
q0 -42 29 -71t71 -29l70 2v108h-40l-59 65h204l65 -60h-100v-120z" />
    <glyph glyph-name="quotesingle" unicode="'" horiz-adv-x="230" 
d="M80 750v-195l85 40v155h-85z" />
    <glyph glyph-name="parenleft" unicode="(" horiz-adv-x="307" 
d="M275 -35h-115q-53 28 -85 111q-35 91 -35 222t35 221q32 82 85 114h115q-60 -32 -96 -113q-39 -89 -39 -222q0 -132 39 -222q36 -83 96 -111z" />
    <glyph glyph-name="parenright" unicode=")" horiz-adv-x="290" 
d="M142 -30h-115q60 28 97.5 114t37.5 220q0 132 -39 221q-35 81 -96 113h115q53 -32 86.5 -117.5t33.5 -216.5t-34 -219t-86 -115z" />
    <glyph glyph-name="asterisk" unicode="*" horiz-adv-x="427" 
d="M232 193l-35 -25l-1 195l-151 -92l-20 31l152 91l-135 91l10 36l140 -99v172h40v-169l144 98l20 -31l-149 -98l151 -83l-15 -41l-151 94v-170z" />
    <glyph glyph-name="plus" unicode="+" horiz-adv-x="400" 
d="M377 358l-115 -118h-30v-90h-90v90h-20q-37 0 -63 -11q-11 -5 -34 -21l-13 15l108 107h22v90h90v-90h30q66 0 104 43z" />
    <glyph glyph-name="comma" unicode="," horiz-adv-x="240" 
d="M35 102v-207l80 20v185z" />
    <glyph glyph-name="hyphen" unicode="-" horiz-adv-x="400" 
d="M262 150h-140q-37 0 -63 -11q-11 -5 -34 -21l-13 15l108 107h142q66 0 104 43l11 -15z" />
    <glyph glyph-name="period" unicode="." horiz-adv-x="197" 
d="M70 68q0 30 13 50t32 20q18 0 31.5 -20.5t13.5 -49.5q0 -27 -13 -47t-32 -20t-32 19.5t-13 47.5z" />
    <glyph glyph-name="slash" unicode="/" 
d="M147 0l-110 -25l280 618h109z" />
    <glyph glyph-name="zero" unicode="0" horiz-adv-x="512" 
d="M257 0q-90 0 -155 53t-65 127v233q0 75 64.5 127.5t155.5 52.5t154.5 -52t63.5 -128v-233q0 -74 -64 -127t-154 -53zM257 90q48 0 83 27t35 63v235q0 36 -35 62t-83 26q-50 0 -85 -26t-35 -64v-233q0 -36 35 -63t85 -27z" />
    <glyph glyph-name="one" unicode="1" horiz-adv-x="247" 
d="M182 0l-100 -25l-2 483h-66l166 165z" />
    <glyph glyph-name="two" unicode="2" horiz-adv-x="530" 
d="M17 0l337 338q22 20 31.5 39t9.5 53q0 31 -35 52t-83 21q-40 0 -77 -25q-16 -10 -29 -28q-4 -6 -11 -17l-80 60q36 49 72 71q48 29 123 29q86 0 148 -50t62 -120q0 -34 -3 -60.5t-21 -44.5l-227 -228l293 -2l-92 -88h-418z" />
    <glyph glyph-name="three" unicode="3" horiz-adv-x="460" 
d="M17 0l93 90h130q42 0 71 29t29 71q0 45 -23 72q-26 31 -77 31v17q30 0 52.5 28.5t22.5 66.5q0 40 -22 69t-53 29q-29 0 -50.5 -16.5t-21.5 -33.5q0 -16 -16 -31q-2 -2 -9 -7l-68 68q27 53 60 78q42 32 105 32q69 0 118.5 -48.5t49.5 -116.5q0 -36 -13 -67q-9 -22 -22 -36
q57 -26 57 -125q0 -82 -40 -141t-97 -59h-276z" />
    <glyph glyph-name="four" unicode="4" horiz-adv-x="567" 
d="M395 0l-91 -25l3 128h-205l-82 90l296 400h112l-296 -400h175v209l90 121v-330h117l-94 -90h-23z" />
    <glyph glyph-name="five" unicode="5" horiz-adv-x="460" 
d="M2 0l90 90h165q34 0 58.5 36.5t24.5 86.5q0 46 -34 79t-81 33h-140v268h385l-90 -90h-205v-88h55q81 0 140.5 -59.5t59.5 -142.5q0 -87 -44 -150t-106 -63h-278z" />
    <glyph glyph-name="six" unicode="6" horiz-adv-x="492" 
d="M192 305l60 90q92 0 148.5 -57.5t56.5 -142.5q0 -80 -61.5 -137.5t-148.5 -57.5q-86 0 -146.5 58.5t-60.5 139.5q0 50 57 152q47 84 105 166q55 77 58 77h125q-79 -79 -167 -212.5t-88 -182.5q0 -44 32 -76t78 -32q52 0 89.5 31t37.5 74q0 67 -33.5 88.5t-141.5 21.5z
" />
    <glyph glyph-name="seven" unicode="7" horiz-adv-x="492" 
d="M177 -5l-112 -25l245 533h-260l90 90h313z" />
    <glyph glyph-name="eight" unicode="8" horiz-adv-x="475" 
d="M277 0h-87q-65 0 -110 53t-45 127q0 59 15.5 91.5t49.5 56.5q-43 24 -43 115q0 62 51 106t124 44q76 0 129.5 -43t53.5 -105q0 -47 -11.5 -75.5t-31.5 -41.5q35 -24 50 -55.5t15 -92.5q0 -74 -47 -127t-113 -53zM235 268q-42 0 -71 -25t-29 -63q0 -36 29 -63t71 -27
t72 27t30 63q0 38 -29.5 63t-72.5 25zM232 358q34 0 58.5 21.5t24.5 50.5q0 32 -24.5 53.5t-58.5 21.5q-32 0 -53.5 -21.5t-21.5 -53.5q0 -30 21 -51t54 -21z" />
    <glyph glyph-name="nine" unicode="9" horiz-adv-x="492" 
d="M330 288l-60 -90q-94 0 -159.5 57.5t-65.5 139.5t61 140t149 58t149 -58t61 -140q0 -51 -28 -111q-21 -46 -72 -119q-14 -20 -91 -125q-6 -9 -23 -25q-5 -5 -16 -15l-125 -30q75 66 170 219t95 206q0 45 -33.5 76.5t-79.5 31.5q-52 0 -89.5 -31t-37.5 -74q0 -65 42 -87.5
t153 -22.5z" />
    <glyph glyph-name="colon" unicode=":" horiz-adv-x="197" 
d="M70 333q0 30 13 50t32 20q18 0 31.5 -20.5t13.5 -49.5q0 -27 -13 -47t-32 -20t-32 19.5t-13 47.5zM70 68q0 30 13 50t32 20q18 0 31.5 -20.5t13.5 -49.5q0 -27 -13 -47t-32 -20t-32 19.5t-13 47.5z" />
    <glyph glyph-name="semicolon" unicode=";" horiz-adv-x="240" 
d="M134 90l2 -157l-69 -25v182h67zM67 310q0 30 13 50t32 20q18 0 31.5 -20.5t13.5 -49.5q0 -27 -13 -47t-32 -20t-32 19.5t-13 47.5z" />
    <glyph glyph-name="less" unicode="&#x3c;" horiz-adv-x="417" 
d="M365 90h-127l-207 207l207 206h127l-207 -206z" />
    <glyph glyph-name="equal" unicode="=" horiz-adv-x="400" 
d="M262 330h-140l-95 -2l93 92h142q26 0 73 14q15 4 42 14zM262 150h-140l-95 -2l93 92h142q26 0 73 14q15 4 42 14z" />
    <glyph glyph-name="greater" unicode="&#x3e;" horiz-adv-x="417" 
d="M157 90h-125l206 207l-208 206h127l207 -206z" />
    <glyph glyph-name="question" unicode="?" horiz-adv-x="365" 
d="M200 98l-70 -30v267q71 28 97 68q20 31 20 82q0 16 -11.5 21.5t-33.5 5.5q-10 0 -26.5 -1.5t-35.5 -2.5q-27 0 -60 -19q-26 -15 -50 -39l4 78l86 65q114 0 150 -11q72 -22 72 -97q0 -62 -44 -123q-33 -46 -98 -97v-167zM135 -51q0 29 12 49t30 20t33 -20.5t15 -48.5
q0 -26 -15 -47t-33 -21t-30 20t-12 48z" />
    <glyph glyph-name="at" unicode="@" horiz-adv-x="640" 
d="M435 223h35q25 0 42.5 22.5t17.5 54.5q0 93 -59 158t-141 65q-93 0 -158 -65t-65 -160q0 -93 65.5 -160.5t157.5 -67.5q75 0 116 10.5t71 34.5l48 -50q-33 -30 -89.5 -47.5t-145.5 -17.5q-121 0 -207 88t-86 210t85.5 208.5t207.5 86.5q111 0 190.5 -87.5t79.5 -210.5
q0 -56 -40 -98t-95 -42h-198q-38 0 -65 27t-27 66q0 36 19.5 61.5t48.5 25.5h105l7 -67h-86q-26 0 -26 -20q0 -10 7.5 -17.5t18.5 -7.5h97v86q0 33 -4 45q-7 19 -29 19h-83q-22 0 -48 -8q-8 -2 -22 -9l85 84h101q28 0 48 -30t20 -75z" />
    <glyph glyph-name="A" unicode="A" horiz-adv-x="660" 
d="M631 12l-127 -46q-11 22 -16 34q-18 38 -22 50l-114 183h-237l73 120h92l-33 55l-216 -352q-5 -14 -20 -38q-2 -4 -8 -11l-166 -47l411 682z" />
    <glyph glyph-name="B" unicode="B" horiz-adv-x="530" 
d="M510 205q0 -84 -58.5 -144.5t-139.5 -60.5l-301 -3l-2 626h251q76 0 139.5 -39t63.5 -86q0 -13 -5 -25t-17 -24l-70 -69q67 -12 103 -59t36 -116zM390 195q0 40 -24 69t-59 29h-157l166 166q12 12 12 21q0 12 -22.5 17.5t-50.5 5.5h-125v-383h175q35 0 60 22t25 53z" />
    <glyph glyph-name="C" unicode="C" horiz-adv-x="700" 
d="M705 618l-144 -117l-66 -3h-198q-62 0 -106 -57t-44 -136t43.5 -134.5t106.5 -55.5h258q52 0 120 9q12 1 31 5l-134 -134h-305q-102 0 -176 92t-74 221t73.5 219.5t176.5 90.5h438z" />
    <glyph glyph-name="D" unicode="D" horiz-adv-x="645" 
d="M627 310q0 -128 -83 -219t-199 -91l-345 -2v625h345q117 0 199.5 -91.5t82.5 -221.5zM507 310q0 79 -53 136t-127 57h-205v-383h205q74 0 127 56t53 134z" />
    <glyph glyph-name="E" unicode="E" horiz-adv-x="705" 
d="M617 380l-134 -136l-375 3l-5 133h514zM693 141l-131 -141h-302q-105 0 -180 95t-75 230q0 122 75 210t180 88h425l-124 -118l-274 -2q-63 0 -107.5 -56.5t-44.5 -136.5q0 -78 44 -134t108 -56h275q34 0 85 10q17 3 46 11z" />
    <glyph glyph-name="F" unicode="F" horiz-adv-x="560" 
d="M561 618l-126 -120h-303v-215l-1 92h313l-126 -120h-186l-2 -256l-120 -30v649h551z" />
    <glyph glyph-name="G" unicode="G" horiz-adv-x="655" 
d="M661 618l-123 -115l-246 -5q-62 0 -106 -57t-44 -136t43.5 -134.5t106.5 -55.5h210v148h-157q-30 0 -94 -9q-11 -1 -31 -5l129 134h273l-2 -388h-328q-114 0 -197 91t-83 219q0 129 82 221t198 92h369z" />
    <glyph glyph-name="H" unicode="H" horiz-adv-x="600" 
d="M553 -8l-130 -22l2 298h-297l50 120h247l2 235h126v-631zM140 -6l-136 -29l1 658h135v-629z" />
    <glyph glyph-name="I" unicode="I" horiz-adv-x="150" 
d="M125 -1l-121 -29l1 648h120v-619z" />
    <glyph glyph-name="J" unicode="J" horiz-adv-x="455" 
d="M427 209q0 -99 -56 -159t-141 -60q-84 0 -148 61q-60 57 -60 123l95 90q0 -93 35 -129q24 -25 73 -25q34 0 58 25t24 65l-2 413h120z" />
    <glyph glyph-name="K" unicode="K" horiz-adv-x="550" 
d="M517 0l-124 -47l4 97q0 106 -70 169q-78 71 -227 71v94l235 234h177l-241 -235q125 -26 187 -127q59 -96 59 -256zM138 -6l-124 -34l1 653h123v-619z" />
    <glyph glyph-name="L" unicode="L" horiz-adv-x="445" 
d="M433 129l-128 -134h-291l1 623h120l2 -503h153q36 0 93 7q19 2 50 7z" />
    <glyph glyph-name="M" unicode="M" horiz-adv-x="805" 
d="M779 0l-123 -33l-130 374l-189 -384l-186 381l-122 -340l-138 -21l244 666l202 -415l206 417z" />
    <glyph glyph-name="N" unicode="N" horiz-adv-x="585" 
d="M533 3l-128 -27l2 109q-50 78 -99 156q-56 86 -89 118q-21 22 -50 44q-19 15 -52 37l-2 -439l-116 -28l-1 670q37 0 67 -6.5t62 -25.5q39 -24 88 -64q41 -34 80 -71q31 -28 64 -73q26 -35 48 -72l-2 297h130z" />
    <glyph glyph-name="O" unicode="O" horiz-adv-x="715" 
d="M700 305q0 -127 -85.5 -218.5t-204.5 -91.5h-108q-120 0 -205 91t-85 219q0 130 85.5 221.5t204.5 91.5h108q120 0 205 -91t85 -222zM570 305q0 80 -46.5 136.5t-113.5 56.5h-108q-66 0 -113 -57t-47 -136q0 -78 47 -134t113 -56h108q66 0 113 56t47 134z" />
    <glyph glyph-name="P" unicode="P" horiz-adv-x="470" 
d="M472 456q0 -20 -89 -78q-63 -41 -165 -97q-87 -48 -89 -48v144l155 80q-6 12 -28 20t-42 16h-67l-2 -499l-131 -45l1 664h310q75 -41 102 -60q45 -31 45 -97z" />
    <glyph glyph-name="Q" unicode="Q" horiz-adv-x="715" 
d="M744 -27h-171l-50 50q-28 -14 -56 -21t-62 -7h-108q-120 0 -205 91t-85 219q0 130 85.5 221.5t204.5 91.5h108q120 0 205 -91t85 -222q0 -59 -19.5 -111.5t-56.5 -96.5zM565 305q0 80 -46.5 136.5t-113.5 56.5h-108q-66 0 -113 -57t-47 -136q0 -78 47 -134t113 -56h108
l24 2l-141 141h171l71 -71q35 55 35 118z" />
    <glyph glyph-name="R" unicode="R" horiz-adv-x="625" 
d="M610 3l-131 -29q4 24 5 36q6 42 6 45q0 101 -90 168q-94 70 -237 70l176 175q4 4 4 8q0 10 -24.5 18.5t-48.5 8.5h-138l-2 -501l-131 -26l1 647h272q85 0 144 -35t59 -83q0 -26 -21 -53q-4 -5 -27 -29l-48 -45q115 -50 170 -133q61 -93 61 -242z" />
    <glyph glyph-name="S" unicode="S" horiz-adv-x="685" 
d="M685 -5h-710l120 120h469q-7 58 -70 99q-51 33 -138 55q-183 46 -260 101q-64 46 -64 103q0 61 39 103t96 42h489l-120 -115l-274 -5h-27t-25 1q-30 0 -44 -6t-14 -25q0 -9 40 -25q53 -21 169 -53q148 -39 226 -99q98 -76 98 -191v-105z" />
    <glyph glyph-name="T" unicode="T" horiz-adv-x="570" 
d="M591 618l-124 -120h-195l-2 -499l-121 -34l3 533h-279l116 120h602z" />
    <glyph glyph-name="U" unicode="U" horiz-adv-x="580" 
d="M545 125q0 -52 -57.5 -91t-137.5 -39h-138q-82 0 -138.5 39.5t-56.5 93.5l-2 490h120l2 -458q0 -20 21.5 -32.5t53.5 -12.5h138q31 0 53 12.5t22 32.5l2 458h116z" />
    <glyph glyph-name="V" unicode="V" horiz-adv-x="670" 
d="M651 648l-326 -658l-319 658h141l178 -380l182 380h144z" />
    <glyph glyph-name="W" unicode="W" horiz-adv-x="1042" 
d="M1032 663l-317 -662l-195 404l-193 -402l-319 660h138l181 -380l195 402l193 -404l178 382h139z" />
    <glyph glyph-name="X" unicode="X" horiz-adv-x="785" 
d="M791 1l-163 -23l-236 250l-224 -233l-180 -26l321 343l-306 306h171l219 -219l220 219h171l-305 -305z" />
    <glyph glyph-name="Y" unicode="Y" horiz-adv-x="680" 
d="M684 613l-329 -329l-2 -282l-120 -26l2 305l-332 332h175l215 -219l220 219h171z" />
    <glyph glyph-name="Z" unicode="Z" horiz-adv-x="685" 
d="M703 135l-129 -140h-576l393 503h-251q-26 0 -74 -6q-16 -2 -44 -6l129 132h487l-394 -503h321q21 0 81 10q20 3 57 10z" />
    <glyph glyph-name="bracketleft" unicode="[" horiz-adv-x="242" 
d="M207 -25h-165v643h165v-90h-75v-463h75v-90z" />
    <glyph glyph-name="backslash" unicode="\" 
d="M30 593h159v-20q-12 0 -25 -4.5t-13 -15.5l267 -554h-159v20q12 0 21 3q17 6 17 17z" />
    <glyph glyph-name="bracketright" unicode="]" horiz-adv-x="235" 
d="M191 -25h-166v90h75v463h-75v90h166v-643z" />
    <glyph glyph-name="asciicircum" unicode="^" horiz-adv-x="417" 
d="M384 413h-99l-80 80l-79 -80h-99l178 178z" />
    <glyph glyph-name="underscore" unicode="_" horiz-adv-x="505" 
d="M52 -180v90h470v-90h-470z" />
    <glyph glyph-name="grave" unicode="`" horiz-adv-x="1026" 
d="M719 -28q-23 43 -36 69q-42 78 -71.5 123.5t-62.5 89.5q-7 9 -19 24q-18 -12 -29 -19q-63 -43 -105 -77q-47 -38 -123 -114q-24 -24 -64 -66q23 78 38 125q42 133 77 229q30 83 69 172q27 62 68 151q30 65 31 65l28 -68q35 -87 62 -160q39 -108 60 -184q15 -55 37.5 -160
t28 -137t11.5 -63zM850 236q-42 -73 -146.5 -116.5t-232.5 -43.5q-36 0 -61.5 2t-59.5 9q-122 24 -196.5 85.5t-74.5 134.5q0 37 21 73q41 73 145.5 116.5t232.5 43.5q36 0 61.5 -2t59.5 -9q123 -25 197 -86t74 -135q0 -35 -20 -72zM815 242q10 17 14 33t4 33
q0 67 -66.5 122t-179.5 78q-53 10 -112 10q-115 0 -210 -39.5t-132 -104.5q-18 -33 -18 -66q0 -66 67 -122t179 -78q53 -10 112 -10q115 0 210 39.5t132 104.5z" />
    <glyph glyph-name="a" unicode="a" horiz-adv-x="600" 
d="M-121 -30l373 622l360 -592l-92 -25l-18 27q-19 30 -19 36l-118 190h-219l55 90h110l-60 99l-229 -374q0 -10 -16 -32q-2 -4 -9 -11z" />
    <glyph glyph-name="b" unicode="b" horiz-adv-x="490" 
d="M5 3l-1 595h236q70 0 130 -33t60 -74q0 -21 -20 -41l-93 -92q76 0 117 -45.5t41 -117.5q0 -78 -54 -134t-129 -56zM95 95h190q41 0 70.5 26.5t29.5 63.5q0 47 -29 80t-69 33h-120l140 140q16 17 16 31q0 18 -27 28.5t-61 10.5h-140v-413z" />
    <glyph glyph-name="c" unicode="c" horiz-adv-x="650" 
d="M650 105l-100 -105h-298q-97 0 -166 88t-69 210q0 123 68 209t167 86h396l-108 -88l-60 -2h-198q-68 0 -116.5 -60.5t-48.5 -147.5q0 -84 48.5 -144.5t116.5 -60.5h258q47 0 82 7q12 2 28 8z" />
    <glyph glyph-name="d" unicode="d" horiz-adv-x="610" 
d="M5 2v593h330q110 0 188.5 -87.5t78.5 -210.5q0 -122 -78.5 -208.5t-188.5 -86.5h-330zM97 505v-413h220q81 0 138 60t57 145q0 86 -57 147t-138 61h-220z" />
    <glyph glyph-name="e" unicode="e" horiz-adv-x="640" 
d="M545 0h-295q-99 0 -169.5 91.5t-70.5 218.5q0 117 70 200t170 83h388l-93 -89l-268 -1q-69 0 -118 -61t-49 -147q0 -83 49 -144t118 -61h275q38 0 75 13q12 4 30 14zM570 350l-105 -107l-361 4l3 103h463z" />
    <glyph glyph-name="f" unicode="f" horiz-adv-x="490" 
d="M92 265l-2 -260l-90 -30v623h499l-95 -90h-312v-230l3 77h287l-95 -90h-195z" />
    <glyph glyph-name="g" unicode="g" horiz-adv-x="610" 
d="M330 358h252l-2 -358h-313q-109 0 -187 87t-78 208q0 123 77.5 210.5t187.5 87.5h331l-91 -86l-240 -4q-68 0 -116.5 -60.5t-48.5 -147.5q0 -84 48.5 -144.5t116.5 -60.5h225v178h-172q-33 0 -68 -5q-6 0 -15 -3z" />
    <glyph glyph-name="h" unicode="h" horiz-adv-x="560" 
d="M532 0l-100 -25l-2 298h-305v90h305l2 235h96zM115 -5l-106 -25l1 628h105v-603z" />
    <glyph glyph-name="i" unicode="i" horiz-adv-x="160" 
d="M115 0l-91 -25l1 618h90v-593z" />
    <glyph glyph-name="j" unicode="j" horiz-adv-x="430" 
d="M387 204q0 -92 -51.5 -148t-130.5 -56q-78 0 -135.5 52.5t-57.5 109.5l70 70q0 -78 38 -114q30 -28 80 -28q41 0 69 29t28 76l-2 398h90z" />
    <glyph glyph-name="k" unicode="k" horiz-adv-x="530" 
d="M113 5l-94 -25l1 618h93v-593zM492 10l-93 -35l3 75q0 112 -71 180q-79 75 -226 75v72l227 226h133l-235 -230q134 -18 200 -116q62 -92 62 -247z" />
    <glyph glyph-name="l" unicode="l" horiz-adv-x="425" 
d="M283 5h-269l1 593h90l2 -503h168q42 0 79 6q13 2 31 7z" />
    <glyph glyph-name="m" unicode="m" horiz-adv-x="785" 
d="M12 5l-103 -30l223 624l200 -409l203 412l219 -597l-94 -25l-137 394l-191 -388l-188 385z" />
    <glyph glyph-name="n" unicode="n" horiz-adv-x="540" 
d="M90 -5l-91 -20l3 634q28 -1 46 -5q32 -8 61 -26q38 -22 87 -63q35 -29 79 -70q50 -46 98 -123q16 -26 39 -70l-2 341h100l2 -597l-102 -21l2 95q-51 79 -101 158q-59 90 -91 122q-24 24 -79 64q-17 12 -49 34z" />
    <glyph glyph-name="o" unicode="o" horiz-adv-x="732" 
d="M37 295q0 122 81 210t194 88h108q113 0 194 -87t81 -211q0 -121 -81 -208t-194 -87h-108q-113 0 -194 87t-81 208zM137 295q0 -84 51.5 -144.5t123.5 -60.5h108q72 0 123.5 60.5t51.5 144.5q0 86 -51 147t-124 61h-108q-71 0 -123 -61.5t-52 -146.5z" />
    <glyph glyph-name="p" unicode="p" horiz-adv-x="430" 
d="M110 0l-101 -35l1 628h285q69 -36 94 -53q43 -28 43 -90q0 -20 -79 -70q-63 -40 -149 -86q-77 -41 -80 -41v110l163 82q-3 21 -42 40l-38 18h-95z" />
    <glyph glyph-name="q" unicode="q" horiz-adv-x="732" 
d="M722 -22h-127l-53 53q-57 -31 -122 -31h-108q-113 0 -194 87t-81 208q0 122 81 210t194 88h108q113 0 194 -87t81 -211q0 -60 -21 -113t-61 -96zM467 233l79 -79q24 29 36.5 64.5t12.5 76.5q0 86 -51 147t-124 61h-108q-71 0 -123 -61.5t-52 -146.5q0 -84 51.5 -144.5
t123.5 -60.5h108q29 0 53 10l-133 133h127z" />
    <glyph glyph-name="r" unicode="r" horiz-adv-x="620" 
d="M110 -5l-101 -20l1 618h257q78 0 133 -30t55 -73q0 -18 -13 -37q-9 -13 -30 -34l-65 -61q120 -47 179 -128q64 -88 64 -230l-98 -25q3 19 5.5 38.5t2.5 26.5q0 104 -89.5 178.5t-215.5 74.5l150 149q5 5 5 12q0 16 -28.5 32.5t-56.5 16.5h-153z" />
    <glyph glyph-name="s" unicode="s" horiz-adv-x="695" 
d="M12 0l90 90h478q0 70 -67 119q-56 41 -148.5 64t-146.5 42q-79 28 -120 60q-51 40 -51 88q0 54 35 92t85 38h452l-89 -86l-268 -4q-69 0 -89 -5q-36 -9 -36 -40q0 -14 70 -43t150 -50q144 -38 218 -93q95 -71 95 -182v-90h-658z" />
    <glyph glyph-name="t" unicode="t" 
d="M207 -5l-91 -25l-2 533h-259l87 90h559l-93 -90h-204z" />
    <glyph glyph-name="u" unicode="u" horiz-adv-x="555" 
d="M515 115q0 -47 -53 -81t-127 -34h-138q-74 0 -127 35t-53 83l-2 475h90l2 -443q0 -24 26 -42t64 -18h138q37 0 63.5 17.5t26.5 42.5l2 443h86z" />
    <glyph glyph-name="v" unicode="v" horiz-adv-x="670" 
d="M325 -16l-295 609h107l188 -401l192 401h110z" />
    <glyph glyph-name="w" unicode="w" horiz-adv-x="1042" 
d="M307 -9l-299 609h108l191 -401l194 401l194 -403l188 403h105l-293 -611l-195 404z" />
    <glyph glyph-name="x" unicode="x" horiz-adv-x="760" 
d="M140 0l-138 -25l308 328l-290 290h127l226 -226l227 226h127l-290 -290l303 -303l-128 -25l-239 265z" />
    <glyph glyph-name="y" unicode="y" horiz-adv-x="745" 
d="M320 296l2 -291l-90 -20l-2 308l-310 310h132l221 -226l227 226h127z" />
    <glyph glyph-name="z" unicode="z" horiz-adv-x="675" 
d="M4 5l393 503h-282q-31 0 -60 -5q-9 -1 -23 -5l101 100h449l-394 -503h352q30 0 80 13q8 2 23 7l-100 -110h-539z" />
    <glyph glyph-name="bar" unicode="|" horiz-adv-x="215" 
d="M142 0l-88 -25l3 618h83z" />
    <glyph glyph-name="asciitilde" unicode="~" horiz-adv-x="578" 
d="M497 236q2 -11 3 -25t1 -26q0 -57 -31 -120l-4 2q30 63 30 121q0 22 -3 48q-9 63 -26 97q-20 42 -63 71q-24 16 -48 23.5t-54 7.5v5q32 0 55 -7t49 -25q41 -28 63 -72q19 -39 28 -100zM427 4l-2 4q21 27 31.5 61t10.5 71q0 67 -31 129.5t-81 94.5l-30 12l-43 -18
l-11 -147l-18 1l-10 146l-43 18l-30 -12q-49 -28 -79.5 -90t-30.5 -130q0 -83 47 -139l-3 -3q-56 59 -83.5 145.5t-27.5 179.5q0 91 23 167.5t61 111.5q21 19 55.5 44t72.5 48q12 7 36 53q8 15 22 45q14 -29 21 -43q24 -45 33 -50q61 -26 102.5 -47.5t56.5 -41.5
q21 -27 39 -108.5t18 -175.5q0 -100 -22 -177q-27 -92 -84 -149zM461 98h-4q-11 84 -76 130q-24 16 -46.5 23t-50.5 7v4q32 0 52 -6t46 -24q68 -46 79 -134zM225 433q-32 0 -53.5 -6t-48.5 -25q-41 -29 -60.5 -67t-28.5 -101q-3 -27 -3 -49q0 -59 30 -120l-3 -2
q-31 63 -31 120v30q3 15 4 21q8 64 27.5 103.5t62.5 68.5q27 18 50 25t54 7v-5zM243 256q-30 0 -50 -6t-46 -24q-66 -47 -77 -130q7 87 75 134q23 16 46 23t52 7v-4zM430 53q0 -64 -47.5 -112.5t-114.5 -48.5q-69 0 -120.5 48.5t-51.5 112.5q0 63 49 109t118 46t118 -45
t49 -110zM445 31q47 62 70 153q20 79 20 174q0 88 -18 159t-43 92.5t-85 52.5q-37 18 -73 37q-9 5 -29 43t-24 46l-24 -48q-21 -39 -33 -45q-24 -15 -62 -42q-51 -36 -65 -50q-35 -36 -56 -109.5t-21 -162.5q0 -82 18 -154t59 -135q-23 46 -23 103q0 68 31 130t82 93l31 13
l46 -21l10 -146l12 -1l10 146l43 19q10 -2 20 -4.5t15 -5.5q54 -34 85 -95.5t31 -131.5q0 -59 -27 -110zM426 53q0 63 -47.5 106.5t-115.5 43.5t-115.5 -43.5t-47.5 -106.5q0 -62 50 -109t118 -47q67 0 112.5 46.5t45.5 109.5zM293 367l-3 350zM237 368h-5v347h5v-347z" />
    <glyph glyph-name="nonbreakingspace" unicode="&#xa0;" horiz-adv-x="250" 
 />
  </font>
</defs>
</svg>
